<svg width="24" height="24" viewBox="0 0 24 24" fill="none" xmlns="http://www.w3.org/2000/svg">
    <g id="Exercise">
        <path id="Vector"
              d="M20.6499 9.37507L19.2499 7.97507L19.9999 7.20007L16.7999 4.00007L16.0249 4.75007L14.5999 3.32507L15.3499 2.55007C15.7332 2.16674 16.2082 1.97924 16.7749 1.98757C17.3416 1.9959 17.8166 2.19174 18.1999 2.57507L21.4249 5.80007C21.8082 6.1834 21.9999 6.65424 21.9999 7.21257C21.9999 7.7709 21.8082 8.24174 21.4249 8.62507L20.6499 9.37507ZM8.6499 21.4001C8.26657 21.7834 7.79574 21.9751 7.2374 21.9751C6.67907 21.9751 6.20824 21.7834 5.8249 21.4001L2.5999 18.1751C2.21657 17.7917 2.0249 17.3209 2.0249 16.7626C2.0249 16.2042 2.21657 15.7334 2.5999 15.3501L3.3499 14.6001L4.7749 16.0251L3.9999 16.7751L7.2249 20.0001L7.9749 19.2251L9.3999 20.6501L8.6499 21.4001ZM18.5749 13.0001L19.9999 11.5751L12.4249 4.00007L10.9999 5.42507L18.5749 13.0001ZM11.5749 20.0001L12.9999 18.5501L5.4499 11.0001L3.9999 12.4251L11.5749 20.0001ZM11.4249 14.1501L14.1749 11.4251L12.5749 9.82507L9.8499 12.5751L11.4249 14.1501ZM12.9999 21.4001C12.6166 21.7834 12.1416 21.9751 11.5749 21.9751C11.0082 21.9751 10.5332 21.7834 10.1499 21.4001L2.5999 13.8501C2.21657 13.4667 2.0249 12.9917 2.0249 12.4251C2.0249 11.8584 2.21657 11.3834 2.5999 11.0001L4.0249 9.57507C4.40824 9.19174 4.87907 9.00007 5.4374 9.00007C5.99574 9.00007 6.46657 9.19174 6.8499 9.57507L8.4249 11.1501L11.1749 8.40007L9.5999 6.85007C9.21657 6.46674 9.0249 5.99174 9.0249 5.42507C9.0249 4.8584 9.21657 4.3834 9.5999 4.00007L11.0249 2.57507C11.4082 2.19174 11.8791 2.00007 12.4374 2.00007C12.9957 2.00007 13.4666 2.19174 13.8499 2.57507L21.4249 10.1501C21.8082 10.5334 21.9999 11.0042 21.9999 11.5626C21.9999 12.1209 21.8082 12.5917 21.4249 12.9751L19.9999 14.4001C19.6166 14.7834 19.1416 14.9751 18.5749 14.9751C18.0082 14.9751 17.5332 14.7834 17.1499 14.4001L15.5999 12.8251L12.8499 15.5751L14.4249 17.1501C14.8082 17.5334 14.9999 18.0042 14.9999 18.5626C14.9999 19.1209 14.8082 19.5917 14.4249 19.9751L12.9999 21.4001Z"
              fill="#EB3349"/>
    </g>
</svg>
