<svg width="24" height="24" viewBox="0 0 24 24" fill="none" xmlns="http://www.w3.org/2000/svg">
<path d="M16.9132 23C19.1702 23 21 21.1757 21 18.9253C21 16.6749 19.1702 14.8506 16.9132 14.8506C14.6561 14.8506 12.8263 16.6749 12.8263 18.9253C12.8263 21.1757 14.6561 23 16.9132 23Z" fill="white" fill-opacity="0.5"/>
<path d="M16.9132 16.8594C16.0672 16.8594 15.3806 17.544 15.3806 18.3874C15.3806 19.2146 16.0304 19.8869 16.8927 19.9113C16.905 19.9113 16.9213 19.9113 16.9295 19.9113C16.9377 19.9113 16.9499 19.9113 16.9581 19.9113C16.9622 19.9113 16.9663 19.9113 16.9663 19.9113C17.7918 19.8828 18.4416 19.2146 18.4457 18.3874C18.4457 17.544 17.7591 16.8594 16.9132 16.8594Z" fill="#36343B"/>
<path d="M19.6843 21.9202C18.9569 22.5885 17.9839 23 16.9132 23C15.8424 23 14.87 22.5885 14.1426 21.9202C14.2407 21.5494 14.5063 21.2112 14.8946 20.9504C16.0103 20.2088 17.8248 20.2088 18.9324 20.9504C19.3247 21.2112 19.5862 21.5494 19.6843 21.9202Z" fill="#36343B"/>
<path fill-rule="evenodd" clip-rule="evenodd" d="M11.3239 2C14.3563 2.00013 16.8144 4.44131 16.8144 7.45272V11.0892H17.7312C18.2344 11.0894 18.6469 11.4955 18.6469 11.9993V14.3145C18.1402 14.1434 17.5969 14.0499 17.0319 14.0499C14.2632 14.0501 12.0183 16.2794 12.0183 19.029C12.0184 20.142 12.387 21.1694 13.0085 21.9985H4.91672C4.40934 21.9985 4 21.5923 4 21.0884V11.9993C4 11.4954 4.41328 11.0892 4.91672 11.0892H5.83343V7.45272C5.83343 4.44122 8.2915 2 11.3239 2ZM11.3239 3.81627C9.30232 3.81627 7.66197 5.44506 7.66197 7.45272V11.0892H14.9859V7.45272C14.9859 5.44514 13.3454 3.81641 11.3239 3.81627Z" fill="white" fill-opacity="0.5"/>
</svg>
