<svg width="64" height="64" viewBox="0 0 64 64" fill="none" xmlns="http://www.w3.org/2000/svg">
<g clip-path="url(#paint0_angular_271_743_clip_path)" data-figma-skip-parse="true"><g transform="matrix(0.0266667 0 0 0.0266667 32 31.9999)"><foreignObject x="-1000" y="-1000" width="2000" height="2000"><div xmlns="http://www.w3.org/1999/xhtml" style="background:conic-gradient(from 90deg,rgba(20, 18, 24, 1) 0deg,rgba(235, 51, 73, 1) 359.964deg,rgba(20, 18, 24, 1) 360deg);height:100%;width:100%;opacity:1"></div></foreignObject></g></g><path d="M58.6667 31.9999C58.6667 46.7275 46.7276 58.6666 32 58.6666C17.2724 58.6666 5.33337 46.7275 5.33337 31.9999C5.33337 17.2723 17.2724 5.33325 32 5.33325C46.7276 5.33325 58.6667 17.2723 58.6667 31.9999ZM12 31.9999C12 43.0456 20.9543 51.9999 32 51.9999C43.0457 51.9999 52 43.0456 52 31.9999C52 20.9542 43.0457 11.9999 32 11.9999C20.9543 11.9999 12 20.9542 12 31.9999Z" data-figma-gradient-fill="{&#34;type&#34;:&#34;GRADIENT_ANGULAR&#34;,&#34;stops&#34;:[{&#34;color&#34;:{&#34;r&#34;:0.92156863212585449,&#34;g&#34;:0.20000000298023224,&#34;b&#34;:0.28627452254295349,&#34;a&#34;:1.0},&#34;position&#34;:0.99989998340606689},{&#34;color&#34;:{&#34;r&#34;:0.078431375324726105,&#34;g&#34;:0.070588238537311554,&#34;b&#34;:0.094117648899555206,&#34;a&#34;:1.0},&#34;position&#34;:1.0}],&#34;stopsVar&#34;:[{&#34;color&#34;:{&#34;r&#34;:0.92156863212585449,&#34;g&#34;:0.20000000298023224,&#34;b&#34;:0.28627452254295349,&#34;a&#34;:1.0},&#34;position&#34;:0.99989998340606689},{&#34;color&#34;:{&#34;r&#34;:0.078431375324726105,&#34;g&#34;:0.070588238537311554,&#34;b&#34;:0.094117648899555206,&#34;a&#34;:1.0},&#34;position&#34;:1.0}],&#34;transform&#34;:{&#34;m00&#34;:53.333328247070312,&#34;m01&#34;:0.0,&#34;m02&#34;:5.33337402343750,&#34;m10&#34;:0.0,&#34;m11&#34;:53.333328247070312,&#34;m12&#34;:5.3332519531250},&#34;opacity&#34;:1.0,&#34;blendMode&#34;:&#34;NORMAL&#34;,&#34;visible&#34;:true}"/>
<defs>
<clipPath id="paint0_angular_271_743_clip_path"><path d="M58.6667 31.9999C58.6667 46.7275 46.7276 58.6666 32 58.6666C17.2724 58.6666 5.33337 46.7275 5.33337 31.9999C5.33337 17.2723 17.2724 5.33325 32 5.33325C46.7276 5.33325 58.6667 17.2723 58.6667 31.9999ZM12 31.9999C12 43.0456 20.9543 51.9999 32 51.9999C43.0457 51.9999 52 43.0456 52 31.9999C52 20.9542 43.0457 11.9999 32 11.9999C20.9543 11.9999 12 20.9542 12 31.9999Z"/></clipPath></defs>
</svg>
